<svg xmlns="http://www.w3.org/2000/svg" viewBox="0 0 512 512" width="512" height="512">
  <!-- Biznexa Icon — Light Background Version -->

  <!-- Background -->
  <rect width="512" height="512" rx="80" fill="#f0f4f8"/>

  <!-- Layer 1 (bottom) — Digital Marketing -->
  <path d="M96,340 L156,280 L416,280 L356,340 Z" fill="#0a6e3f" opacity="0.3"/>

  <!-- Layer 2 (middle) — AI Automation -->
  <path d="M96,280 L156,220 L416,220 L356,280 Z" fill="#0a6e3f" opacity="0.55"/>

  <!-- Layer 3 (top) — Web Development -->
  <path d="M96,220 L156,160 L416,160 L356,220 Z" fill="#0a6e3f" opacity="0.85"/>

  <!-- AI Spark — core -->
  <circle cx="370" cy="120" r="28" fill="#0a5478"/>

  <!-- Spark rays — cross pattern -->
  <line x1="370" y1="72" x2="370" y2="86" stroke="#0a5478" stroke-width="8" stroke-linecap="round"/>
  <line x1="370" y1="154" x2="370" y2="140" stroke="#0a5478" stroke-width="8" stroke-linecap="round"/>
  <line x1="322" y1="120" x2="336" y2="120" stroke="#0a5478" stroke-width="8" stroke-linecap="round"/>
  <line x1="404" y1="120" x2="418" y2="120" stroke="#0a5478" stroke-width="8" stroke-linecap="round"/>

  <!-- Spark rays — diagonal -->
  <line x1="336" y1="86" x2="346" y2="96" stroke="#0a5478" stroke-width="5" stroke-linecap="round" opacity="0.6"/>
  <line x1="404" y1="86" x2="394" y2="96" stroke="#0a5478" stroke-width="5" stroke-linecap="round" opacity="0.6"/>
  <line x1="336" y1="154" x2="346" y2="144" stroke="#0a5478" stroke-width="5" stroke-linecap="round" opacity="0.5"/>
  <line x1="404" y1="154" x2="394" y2="144" stroke="#0a5478" stroke-width="5" stroke-linecap="round" opacity="0.5"/>
</svg>
